{
  "accessors": [
    {
      "bufferView": 2,
      "componentType": 5126,
      "count": 13369,
      "max": [
        142.82797241210938,
        109.24759674072266,
        232.87864685058594
      ],
      "min": [
        -243.5718994140625,
        -234.37513732910156,
        -62.069454193115234
      ],
      "type": "VEC3"
    },
    {
      "bufferView": 2,
      "byteOffset": 160428,
      "componentType": 5126,
      "count": 13369,
      "max": [
        1,
        0.99999845027923584,
        1
      ],
      "min": [
        -1,
        -0.9999958872795105,
        -1
      ],
      "type": "VEC3"
    },
    {
      "bufferView": 3,
      "componentType": 5126,
      "count": 13369,
      "max": [
        1,
        0.99665462970733643,
        1,
        1
      ],
      "min": [
        -1,
        -0.99983423948287964,
        -1,
        -1
      ],
      "type": "VEC4"
    },
    {
      "bufferView": 1,
      "componentType": 5126,
      "count": 13369,
      "max": [
        1,
        1
      ],
      "min": [
        0,
        0
      ],
      "type": "VEC2"
    },
    {
      "bufferView": 0,
      "componentType": 5125,
      "count": 33939,
      "max": [
        13368
      ],
      "min": [
        0
      ],
      "type": "SCALAR"
    },
    {
      "bufferView": 2,
      "byteOffset": 320856,
      "componentType": 5126,
      "count": 37,
      "max": [
        268.57220458984375,
        0,
        268.57220458984375
      ],
      "min": [
        -268.57220458984375,
        0,
        -268.57220458984375
      ],
      "type": "VEC3"
    },
    {
      "bufferView": 2,
      "byteOffset": 321300,
      "componentType": 5126,
      "count": 37,
      "max": [
        0,
        1,
        -0
      ],
      "min": [
        0,
        1,
        -0
      ],
      "type": "VEC3"
    },
    {
      "bufferView": 3,
      "byteOffset": 213904,
      "componentType": 5126,
      "count": 37,
      "max": [
        1,
        0,
        3.6501182876236271e-07,
        1
      ],
      "min": [
        1,
        0,
        -3.6501182876236271e-07,
        1
      ],
      "type": "VEC4"
    },
    {
      "bufferView": 1,
      "byteOffset": 106952,
      "componentType": 5126,
      "count": 37,
      "max": [
        0.99019604921340942,
        0.9901961088180542
      ],
      "min": [
        0.0098039219155907631,
        0.0098040103912353516
      ],
      "type": "VEC2"
    },
    {
      "bufferView": 0,
      "byteOffset": 135756,
      "componentType": 5125,
      "count": 108,
      "max": [
        36
      ],
      "min": [
        0
      ],
      "type": "SCALAR"
    },
    {
      "bufferView": 2,
      "byteOffset": 321744,
      "componentType": 5126,
      "count": 8502,
      "max": [
        109.38370513916016,
        18.952390670776367,
        163.32708740234375
      ],
      "min": [
        -100.16638946533203,
        -180.51319885253906,
        -115.32311248779297
      ],
      "type": "VEC3"
    },
    {
      "bufferView": 2,
      "byteOffset": 423768,
      "componentType": 5126,
      "count": 8502,
      "max": [
        0.99978017807006836,
        1,
        0.99912387132644653
      ],
      "min": [
        -0.99978017807006836,
        -1,
        -0.99912387132644653
      ],
      "type": "VEC3"
    },
    {
      "bufferView": 3,
      "byteOffset": 214496,
      "componentType": 5126,
      "count": 8502,
      "max": [
        1,
        0.76066797971725464,
        0.99999958276748657,
        1
      ],
      "min": [
        -1,
        -0.79904937744140625,
        -0.9999997615814209,
        1
      ],
      "type": "VEC4"
    },
    {
      "bufferView": 1,
      "byteOffset": 107248,
      "componentType": 5126,
      "count": 8502,
      "max": [
        0.99218988418579102,
        0.99225074052810669
      ],
      "min": [
        0.0078101335093379021,
        0.0077493190765380859
      ],
      "type": "VEC2"
    },
    {
      "bufferView": 0,
      "byteOffset": 136188,
      "componentType": 5125,
      "count": 21744,
      "max": [
        8501
      ],
      "min": [
        0
      ],
      "type": "SCALAR"
    },
    {
      "bufferView": 2,
      "byteOffset": 525792,
      "componentType": 5126,
      "count": 5907,
      "max": [
        -61.158676147460938,
        314.86294555664062,
        72.166168212890625
      ],
      "min": [
        -121.21763610839844,
        194.7269287109375,
        -6.0132417678833008
      ],
      "type": "VEC3"
    },
    {
      "bufferView": 2,
      "byteOffset": 596676,
      "componentType": 5126,
      "count": 5907,
      "max": [
        1,
        1,
        1
      ],
      "min": [
        -1,
        -1,
        -1
      ],
      "type": "VEC3"
    },
    {
      "bufferView": 3,
      "byteOffset": 350528,
      "componentType": 5126,
      "count": 5907,
      "max": [
        1,
        1,
        1,
        1
      ],
      "min": [
        -1,
        -0.99336737394332886,
        -1,
        -1
      ],
      "type": "VEC4"
    },
    {
      "bufferView": 1,
      "byteOffset": 175264,
      "componentType": 5126,
      "count": 5907,
      "max": [
        0.99217444658279419,
        0.9921722412109375
      ],
      "min": [
        0.0078255496919155121,
        0.010281205177307129
      ],
      "type": "VEC2"
    },
    {
      "bufferView": 0,
      "byteOffset": 223164,
      "componentType": 5125,
      "count": 18744,
      "max": [
        5906
      ],
      "min": [
        0
      ],
      "type": "SCALAR"
    },
    {
      "bufferView": 2,
      "byteOffset": 667560,
      "componentType": 5126,
      "count": 2016,
      "max": [
        355.541748046875,
        83.604560852050781,
        383.5697021484375
      ],
      "min": [
        -355.541748046875,
        -83.604560852050781,
        -383.5697021484375
      ],
      "type": "VEC3"
    },
    {
      "bufferView": 2,
      "byteOffset": 691752,
      "componentType": 5126,
      "count": 2016,
      "max": [
        1,
        1,
        1
      ],
      "min": [
        -1,
        -1,
        -1
      ],
      "type": "VEC3"
    },
    {
      "bufferView": 3,
      "byteOffset": 445040,
      "componentType": 5126,
      "count": 2016,
      "max": [
        1,
        0.90659403800964355,
        1,
        1
      ],
      "min": [
        -1,
        -0.90659415721893311,
        -1,
        1
      ],
      "type": "VEC4"
    },
    {
      "bufferView": 1,
      "byteOffset": 222520,
      "componentType": 5126,
      "count": 2016,
      "max": [
        0.99214744567871094,
        0.99273377656936646
      ],
      "min": [
        0.007852570153772831,
        0.0072662830352783203
      ],
      "type": "VEC2"
    },
    {
      "bufferView": 0,
      "byteOffset": 298140,
      "componentType": 5125,
      "count": 5634,
      "max": [
        2015
      ],
      "min": [
        0
      ],
      "type": "SCALAR"
    }
  ],
  "asset": {
    "extras": {
      "author": "Bastien Genbrugge (https://sketchfab.com/bastienBGR)",
      "license": "CC-BY-4.0 (http://creativecommons.org/licenses/by/4.0/)",
      "source": "https://sketchfab.com/models/d2dd1ee7948343308cd732c665ef1337",
      "title": "The revenge of the traditional toys"
    },
    "generator": "Sketchfab-3.19.4",
    "version": "2.0"
  },
  "bufferViews": [
    {
      "buffer": 0,
      "byteLength": 320676,
      "byteOffset": 0,
      "name": "floatBufferViews",
      "target": 34963
    },
    {
      "buffer": 0,
      "byteLength": 238648,
      "byteOffset": 320676,
      "byteStride": 8,
      "name": "floatBufferViews",
      "target": 34962
    },
    {
      "buffer": 0,
      "byteLength": 715944,
      "byteOffset": 559324,
      "byteStride": 12,
      "name": "floatBufferViews",
      "target": 34962
    },
    {
      "buffer": 0,
      "byteLength": 477296,
      "byteOffset": 1275268,
      "byteStride": 16,
      "name": "floatBufferViews",
      "target": 34962
    }
  ],
  "buffers": [
    {
      "byteLength": 1752564,
      "uri": "scene.bin"
    }
  ],
  "images": [
    {
      "uri": "textures/Disc.1_baseColor.png"
    },
    {
      "uri": "textures/Disc.1_emissive.jpeg"
    },
    {
      "uri": "textures/Blokjes.1_emissive.jpeg"
    },
    {
      "uri": "textures/T-Rex.2_emissive.jpeg"
    },
    {
      "uri": "textures/material_emissive.jpeg"
    },
    {
      "uri": "textures/Control.1_emissive.jpeg"
    }
  ],
  "materials": [
    {
      "doubleSided": true,
      "emissiveFactor": [
        1,
        1,
        1
      ],
      "emissiveTexture": {
        "index": 3,
        "texCoord": 0
      },
      "name": "T-Rex.2",
      "pbrMetallicRoughness": {
        "baseColorFactor": [
          0,
          0,
          0,
          1
        ],
        "metallicFactor": 0,
        "roughnessFactor": 0.59999999999999998
      }
    },
    {
      "alphaMode": "BLEND",
      "doubleSided": true,
      "emissiveFactor": [
        1,
        1,
        1
      ],
      "emissiveTexture": {
        "index": 1,
        "texCoord": 0
      },
      "name": "Disc.1",
      "pbrMetallicRoughness": {
        "baseColorFactor": [
          0,
          0,
          0,
          1
        ],
        "baseColorTexture": {
          "index": 0,
          "texCoord": 0
        },
        "metallicFactor": 0,
        "roughnessFactor": 0.59999999999999998
      }
    },
    {
      "doubleSided": true,
      "emissiveFactor": [
        1,
        1,
        1
      ],
      "emissiveTexture": {
        "index": 2,
        "texCoord": 0
      },
      "name": "Blokjes.1",
      "pbrMetallicRoughness": {
        "baseColorFactor": [
          0,
          0,
          0,
          1
        ],
        "metallicFactor": 0,
        "roughnessFactor": 0.59999999999999998
      }
    },
    {
      "doubleSided": true,
      "emissiveFactor": [
        1,
        1,
        1
      ],
      "emissiveTexture": {
        "index": 5,
        "texCoord": 0
      },
      "name": "Control.1",
      "pbrMetallicRoughness": {
        "baseColorFactor": [
          0,
          0,
          0,
          1
        ],
        "metallicFactor": 0,
        "roughnessFactor": 0.59999999999999998
      }
    },
    {
      "doubleSided": true,
      "emissiveFactor": [
        1,
        1,
        1
      ],
      "emissiveTexture": {
        "index": 4,
        "texCoord": 0
      },
      "name": "material",
      "pbrMetallicRoughness": {
        "baseColorFactor": [
          0,
          0,
          0,
          1
        ],
        "metallicFactor": 0,
        "roughnessFactor": 0.59999999999999998
      }
    }
  ],
  "meshes": [
    {
      "name": "T_Rex_T-Rex.2_0",
      "primitives": [
        {
          "attributes": {
            "NORMAL": 1,
            "POSITION": 0,
            "TANGENT": 2,
            "TEXCOORD_0": 3
          },
          "indices": 4,
          "material": 0,
          "mode": 4
        }
      ]
    },
    {
      "name": "Disc_1_Disc.1_0",
      "primitives": [
        {
          "attributes": {
            "NORMAL": 6,
            "POSITION": 5,
            "TANGENT": 7,
            "TEXCOORD_0": 8
          },
          "indices": 9,
          "material": 1,
          "mode": 4
        }
      ]
    },
    {
      "name": "Blokjes_1_Blokjes.1_0",
      "primitives": [
        {
          "attributes": {
            "NORMAL": 11,
            "POSITION": 10,
            "TANGENT": 12,
            "TEXCOORD_0": 13
          },
          "indices": 14,
          "material": 2,
          "mode": 4
        }
      ]
    },
    {
      "name": "Control_2_Control.1_0",
      "primitives": [
        {
          "attributes": {
            "NORMAL": 16,
            "POSITION": 15,
            "TANGENT": 17,
            "TEXCOORD_0": 18
          },
          "indices": 19,
          "material": 3,
          "mode": 4
        }
      ]
    },
    {
      "name": "PS4_PS4_0",
      "primitives": [
        {
          "attributes": {
            "NORMAL": 21,
            "POSITION": 20,
            "TANGENT": 22,
            "TEXCOORD_0": 23
          },
          "indices": 24,
          "material": 4,
          "mode": 4
        }
      ]
    }
  ],
  "nodes": [
    {
      "children": [
        1
      ],
      "name": "RootNode (gltf orientation matrix)",
      "rotation": [
        -0.70710678118654746,
        -0,
        -0,
        0.70710678118654757
      ]
    },
    {
      "children": [
        2
      ],
      "name": "RootNode (model correction matrix)"
    },
    {
      "children": [
        3
      ],
      "matrix": [
        1,
        0,
        0,
        0,
        0,
        0,
        1,
        0,
        0,
        -1,
        0,
        0,
        0,
        0,
        0,
        1
      ],
      "name": "T-RexTotaal_3.fbx"
    },
    {
      "children": [
        4,
        6,
        8,
        10,
        12
      ],
      "name": "RootNode"
    },
    {
      "children": [
        5
      ],
      "matrix": [
        1,
        0,
        0,
        0,
        0,
        1,
        0,
        0,
        0,
        0,
        1,
        0,
        -152.41436767578125,
        216.22032165527344,
        -193.77761840820312,
        1
      ],
      "name": "T_Rex"
    },
    {
      "mesh": 0,
      "name": "T_Rex_T-Rex.2_0"
    },
    {
      "children": [
        7
      ],
      "matrix": [
        1,
        0,
        0,
        0,
        0,
        1,
        0,
        0,
        0,
        0,
        1,
        0,
        -218.86544799804688,
        -60.423633575439453,
        -142.10113525390625,
        1
      ],
      "name": "Disc_1"
    },
    {
      "mesh": 1,
      "name": "Disc_1_Disc.1_0"
    },
    {
      "children": [
        9
      ],
      "matrix": [
        -0.57370176450479837,
        0.81059180742556369,
        0.11750407285978909,
        0,
        -0.20063006513114845,
        1.6098007200371356e-05,
        -0.97966707442187995,
        0,
        -0.79411199611235683,
        -0.58561157901412086,
        0.1626198516634304,
        0,
        -216.90817260742188,
        -38.664554595947266,
        -208.781005859375,
        1
      ],
      "name": "Blokjes_1"
    },
    {
      "mesh": 2,
      "name": "Blokjes_1_Blokjes.1_0"
    },
    {
      "children": [
        11
      ],
      "matrix": [
        1,
        0,
        0,
        0,
        0,
        1,
        0,
        0,
        0,
        0,
        1,
        0,
        7.8485698699951172,
        -52.116741180419922,
        8.8152675628662109,
        1
      ],
      "name": "Control_2"
    },
    {
      "mesh": 3,
      "name": "Control_2_Control.1_0"
    },
    {
      "children": [
        13
      ],
      "matrix": [
        0.10842773591702064,
        0.03249498404471543,
        5.2941049801676745e-09,
        0,
        -0.032142400580259779,
        0.10725124927042488,
        0.016629297009459108,
        0,
        0.0047738949511331044,
        -0.01592932660297916,
        0.1119641209724288,
        0,
        -89.604507446289062,
        252.5325927734375,
        30.080495834350586,
        1
      ],
      "name": "PS4"
    },
    {
      "mesh": 4,
      "name": "PS4_PS4_0"
    }
  ],
  "samplers": [
    {
      "magFilter": 9729,
      "minFilter": 9987,
      "wrapS": 10497,
      "wrapT": 10497
    }
  ],
  "scene": 0,
  "scenes": [
    {
      "name": "OSG_Scene",
      "nodes": [
        0
      ]
    }
  ],
  "textures": [
    {
      "sampler": 0,
      "source": 0
    },
    {
      "sampler": 0,
      "source": 1
    },
    {
      "sampler": 0,
      "source": 2
    },
    {
      "sampler": 0,
      "source": 3
    },
    {
      "sampler": 0,
      "source": 4
    },
    {
      "sampler": 0,
      "source": 5
    }
  ]
}

